<svg xmlns="http://www.w3.org/2000/svg" width="512" height="512" viewBox="0 0 512 512">
  <defs>
    <linearGradient id="bg" x1="0" y1="0" x2="1" y2="1">
      <stop offset="0%" stop-color="#C2724E"/>
      <stop offset="100%" stop-color="#D4916F"/>
    </linearGradient>
  </defs>
  <!-- Rounded square background -->
  <rect width="512" height="512" rx="108" fill="url(#bg)"/>
  <!-- GPU icon (matches Lucide Gpu) -->
  <g transform="translate(256,256) scale(14) translate(-12,-12)" stroke="white" stroke-width="2" stroke-linecap="round" stroke-linejoin="round" fill="none">
    <!-- Mounting bracket -->
    <path d="M2 21V3"/>
    <!-- Card body -->
    <path d="M2 5h18a2 2 0 0 1 2 2v8a2 2 0 0 1-2 2H2.26"/>
    <!-- PCIe connector -->
    <path d="M7 17v3a1 1 0 0 0 1 1h5a1 1 0 0 0 1-1v-3"/>
    <!-- Fan 1 -->
    <circle cx="16" cy="11" r="2"/>
    <!-- Fan 2 -->
    <circle cx="8" cy="11" r="2"/>
  </g>
</svg>
